<mxfile host="app.diagrams.net" agent="Mozilla/5.0 (Windows NT 10.0; Win64; x64) AppleWebKit/537.36 (KHTML, like Gecko) Chrome/131.0.0.0 Safari/537.36" version="26.0.4">
  <diagram name="Page-1" id="99Gr2_9BXtp3kF5FrY2Y">
    <mxGraphModel dx="1434" dy="906" grid="1" gridSize="10" guides="1" tooltips="1" connect="1" arrows="1" fold="1" page="1" pageScale="1" pageWidth="1100" pageHeight="850" math="0" shadow="0">
      <root>
        <mxCell id="0" />
        <mxCell id="1" parent="0" />
        <mxCell id="pTIKokzFd4ltYNqVbYcD-3" value="" style="rounded=0;whiteSpace=wrap;html=1;" vertex="1" parent="1">
          <mxGeometry x="10" y="100" width="1270" height="650" as="geometry" />
        </mxCell>
        <mxCell id="pTIKokzFd4ltYNqVbYcD-17" value="" style="endArrow=none;dashed=1;html=1;rounded=0;exitX=1.001;exitY=0.06;exitDx=0;exitDy=0;exitPerimeter=0;" edge="1" parent="1" source="pTIKokzFd4ltYNqVbYcD-3">
          <mxGeometry width="50" height="50" relative="1" as="geometry">
            <mxPoint x="510" y="460" as="sourcePoint" />
            <mxPoint x="9" y="140" as="targetPoint" />
            <Array as="points" />
          </mxGeometry>
        </mxCell>
        <mxCell id="pTIKokzFd4ltYNqVbYcD-26" value="Customer&#39;s End" style="text;strokeColor=#b85450;align=center;fillColor=#f8cecc;html=1;verticalAlign=middle;whiteSpace=wrap;rounded=0;fontSize=18;fontStyle=1;fontFamily=Verdana;" vertex="1" parent="1">
          <mxGeometry x="10" y="100" width="640" height="40" as="geometry" />
        </mxCell>
        <mxCell id="pTIKokzFd4ltYNqVbYcD-27" value="Hanwha Admin&#39;s End" style="text;strokeColor=#d6b656;align=center;fillColor=#fff2cc;html=1;verticalAlign=middle;whiteSpace=wrap;rounded=0;fontSize=18;fontStyle=1;fontFamily=Verdana;" vertex="1" parent="1">
          <mxGeometry x="650" y="100" width="630" height="40" as="geometry" />
        </mxCell>
        <mxCell id="pTIKokzFd4ltYNqVbYcD-30" value="" style="shape=link;html=1;rounded=0;entryX=0;entryY=0;entryDx=0;entryDy=0;exitX=0.507;exitY=1.002;exitDx=0;exitDy=0;exitPerimeter=0;" edge="1" parent="1" source="pTIKokzFd4ltYNqVbYcD-3" target="pTIKokzFd4ltYNqVbYcD-27">
          <mxGeometry width="100" relative="1" as="geometry">
            <mxPoint x="490" y="500" as="sourcePoint" />
            <mxPoint x="590" y="500" as="targetPoint" />
          </mxGeometry>
        </mxCell>
        <mxCell id="pTIKokzFd4ltYNqVbYcD-31" value="Vertical Container" style="swimlane;whiteSpace=wrap;html=1;" vertex="1" parent="1">
          <mxGeometry x="80" y="180" width="140" height="220" as="geometry" />
        </mxCell>
      </root>
    </mxGraphModel>
  </diagram>
</mxfile>
